# xmcd
#
# Track frame offsets:
#	150
#	18926
#	34726
#	53248
#	70095
#	89763
#	112507
#	132095
#	154645
#	181834
#	198428
#	220919
#	244049
#	245432
#	257976
#
# Disc length: 3738 seconds
#
# Revision: 0
# Processed by: cddbd v1.5.1PL0 Copyright (c) Steve Scherf et al.
# Submitted via: dBpowerAMP V4.0
#
DISCID=c60e980f
DTITLE=Beyonce' - Dangerously In Love
DYEAR=1900
DGENRE=R&B
TTITLE0=Crazy In Love 
TTITLE1=Naughty Girl
TTITLE2=Baby Boy   ft. Sean Paul
TTITLE3=Hip Hop Star
TTITLE4=Be With You
TTITLE5=Me,Myself ,and I
TTITLE6=Yes
TTITLE7=Signs 
TTITLE8=Speechless
TTITLE9=That's How You Like It
TTITLE10=The Closer I Get To You ft. Luther Vandross
TTITLE11=Dangerously In Love
TTITLE12=Beyonce' Interlude
TTITLE13=A Gift From A Virgo
TTITLE14=Daddy
EXTD=
EXTT0=
EXTT1=
EXTT2=
EXTT3=
EXTT4=
EXTT5=
EXTT6=
EXTT7=
EXTT8=
EXTT9=
EXTT10=
EXTT11=
EXTT12=
EXTT13=
EXTT14=
PLAYORDER=
